# xmcd CD database file
#
# Track frame offsets:
#	150
#	17804
#	39939
#	63347
#	80406
#	88779
#	108734
#	119762
#	141161
#	159508
#	191917
#	196219
#
# Disc length: 2924 seconds
#
# Revision: 3
# Processed by: cddbd v1.5.1PL0 Copyright (c) Steve Scherf et al.
# Submitted via: CDex 1.50
#
DISCID=a70b6a0c
DTITLE=Nerved - Off Line
DYEAR=2004
DGENRE=Blues
TTITLE0=Stroke It Up
TTITLE1=Believe In Me
TTITLE2=The Search (Reality)
TTITLE3=Expect No Mercy
TTITLE4=Intermission I - rue Saint-Esprit
TTITLE5=Crystal Balls
TTITLE6=Life
TTITLE7=Paralyzed
TTITLE8=Can't Bring Me Down
TTITLE9=Disclosure
TTITLE10=Intermission II - Port Vauban
TTITLE11=Scars
EXTD=YEAR: 2004
EXTT0=
EXTT1=
EXTT2=
EXTT3=
EXTT4=
EXTT5=
EXTT6=
EXTT7=
EXTT8=
EXTT9=
EXTT10=
EXTT11=
PLAYORDER=
